<svg xmlns:dc="http://purl.org/dc/elements/1.1/" xmlns:cc="http://creativecommons.org/ns#" xmlns:rdf="http://www.w3.org/1999/02/22-rdf-syntax-ns#" xmlns:svg="http://www.w3.org/2000/svg" xmlns="http://www.w3.org/2000/svg" xmlns:sodipodi="http://sodipodi.sourceforge.net/DTD/sodipodi-0.dtd" xmlns:inkscape="http://www.inkscape.org/namespaces/inkscape" version="1.1" x="0px" y="0px" viewBox="0 0 100 125"><g transform="translate(0,-952.36218)"><path style="font-size:medium;font-style:normal;font-variant:normal;font-weight:normal;font-stretch:normal;text-indent:0;text-align:start;text-decoration:none;line-height:normal;letter-spacing:normal;word-spacing:normal;text-transform:none;direction:ltr;block-progression:tb;writing-mode:lr-tb;text-anchor:start;baseline-shift:baseline;opacity:1;color:#000000;fill:#000000;fill-opacity:1;stroke:none;stroke-width:4;marker:none;visibility:visible;display:inline;overflow:visible;enable-background:accumulate;font-family:Sans;-inkscape-font-specification:Sans" d="M 50 14 C 30.141384 14 14 30.14141 14 50 C 14 69.8586 30.141384 86 50 86 C 69.858578 86 86 69.8586 86 50 C 86 30.1414 69.858578 14 50 14 z M 50 18 C 58.046489 18 65.382217 20.986464 71 25.875 C 68.847027 27.772266 66.427268 29.391995 63.84375 30.6875 L 62.65625 28.875 A 2.0002 2.0002 0 0 0 60.78125 27.96875 A 2.0002 2.0002 0 0 0 59.34375 31.09375 L 60.125 32.28125 C 57.550865 33.183085 54.826871 33.751847 52 33.9375 L 52 33 A 2.0002 2.0002 0 0 0 49.78125 30.96875 A 2.0002 2.0002 0 0 0 48 33 L 48 33.9375 C 45.170156 33.749831 42.449767 33.158112 39.875 32.25 L 40.65625 31.09375 A 2.0002 2.0002 0 0 0 38.75 27.96875 A 2.0002 2.0002 0 0 0 37.34375 28.875 L 36.15625 30.6875 C 35.092863 30.152971 34.05918 29.549458 33.0625 28.90625 A 2.0109563 2.0109563 0 0 0 30.875 32.28125 C 31.849573 32.91019 32.869277 33.493756 33.90625 34.03125 L 33.34375 34.875 A 2.0002 2.0002 0 1 0 36.65625 37.09375 L 37.59375 35.6875 C 40.861346 36.93964 44.349137 37.724921 48 37.9375 L 48 39 A 2.0002 2.0002 0 1 0 52 39 L 52 37.9375 C 55.654242 37.725196 59.137395 36.942661 62.40625 35.6875 L 63.34375 37.09375 A 2.0002 2.0002 0 1 0 66.65625 34.875 L 66.09375 34.03125 C 68.906972 32.57044 71.513986 30.770093 73.84375 28.6875 C 78.9081 34.346675 82 41.792887 82 50 C 82 67.6968 67.696822 82 50 82 C 41.953492 82 34.617779 79.044791 29 74.15625 C 31.153999 72.25808 33.571316 70.608291 36.15625 69.3125 L 37.34375 71.09375 A 2.0002 2.0002 0 1 0 40.65625 68.875 L 39.90625 67.75 C 42.472122 66.853801 45.183363 66.278728 48 66.09375 L 48 67 A 2.0002 2.0002 0 1 0 52 67 L 52 66.09375 C 54.815981 66.277762 57.530174 66.825298 60.09375 67.71875 L 59.34375 68.875 A 2.0002 2.0002 0 1 0 62.65625 71.09375 L 63.84375 69.3125 C 64.907138 69.844984 65.94082 70.419294 66.9375 71.0625 A 2.0109563 2.0109563 0 0 0 69.125 67.6875 C 68.142645 67.053536 67.108231 66.508134 66.0625 65.96875 L 66.65625 65.09375 A 2.0002 2.0002 0 0 0 64.75 61.96875 A 2.0002 2.0002 0 0 0 63.34375 62.875 L 62.375 64.3125 C 59.115178 63.074228 55.640729 62.302812 52 62.09375 L 52 61 A 2.0002 2.0002 0 0 0 49.78125 58.96875 A 2.0002 2.0002 0 0 0 48 61 L 48 62.0625 C 44.358308 62.272307 40.88424 63.07096 37.625 64.3125 L 36.65625 62.875 A 2.0002 2.0002 0 0 0 34.78125 61.96875 A 2.0002 2.0002 0 0 0 33.34375 65.09375 L 33.9375 65.96875 C 31.102423 67.43145 28.501099 69.246038 26.15625 71.34375 C 21.091905 65.684571 18 58.207094 18 50 C 18 32.30315 32.303136 18 50 18 z " transform="translate(0,952.36218)"/></g><text x="0" y="115" fill="#000000" font-size="5px" font-weight="bold" font-family="'Helvetica Neue', Helvetica, Arial-Unicode, Arial, Sans-serif">Created by emma mitchell</text><text x="0" y="120" fill="#000000" font-size="5px" font-weight="bold" font-family="'Helvetica Neue', Helvetica, Arial-Unicode, Arial, Sans-serif">from the Noun Project</text></svg>