<svg xmlns="http://www.w3.org/2000/svg" xmlns:xlink="http://www.w3.org/1999/xlink" version="1.1" x="0px" y="0px" viewBox="0 0 119.573 284.78999999999996" style="enable-background:new 0 0 119.573 227.832;" xml:space="preserve"><g><ellipse transform="matrix(0.2268 -0.9739 0.9739 0.2268 48.5655 106.1732)" cx="91.151" cy="22.5" rx="22.495" ry="22.496"/><path d="M93.608,49.431c-8.602,5.082-12.683,15.338-11.08,25.036c2.365,13.654,1.383,28.507-3.617,43.043   c4.349-4.688,7.315-9.873,9.407-15.198c3.283-8.399,4.178-17.119,4.172-23.729c0.002-6.208-0.77-10.522-0.834-10.863h-0.001   c-0.859-4.334,1.958-8.545,6.29-9.404c4.334-0.859,8.545,1.957,9.404,6.29c0.07,0.375,1.137,5.83,1.141,13.978   c-0.008,7.988-1.016,18.604-5.264,29.536c-1.065,2.751-2.351,5.525-3.882,8.267c-4.54,8.127-11.248,15.978-20.829,22.16   c-0.079,0.051-0.164,0.086-0.245,0.134c-1.281,0.767-2.692,1.15-4.093,1.15c-0.158,0-0.314-0.02-0.473-0.029   c-1.087,6.946-1.952,15.458-1.962,25.007c0.004,16.412,2.576,35.987,11.345,55.621c2.076,4.645,6.64,7.402,11.42,7.402   c1.705,0,3.438-0.351,5.095-1.091c6.301-2.817,9.127-10.21,6.308-16.513c-6.972-15.577-9.171-31.6-9.167-45.418   c-0.001-7.534,0.654-14.378,1.495-20.045c6.62-3.142,12.956-9.868,15.651-18.731c6.461-20.659,7.283-41.938,3.127-61.688   C113.915,50.002,102.075,44.386,93.608,49.431z"/><path d="M74.029,137.822c0.05,0.001,0.099,0.009,0.148,0.009c1.151,0,2.277-0.333,3.253-0.965c0.029-0.019,0.057-0.039,0.086-0.059   c10.031-6.497,16.359-14.64,20.331-21.878c1.469-2.678,2.626-5.235,3.516-7.533c3.392-8.731,5.117-18.427,5.128-28.813   c-0.005-7.439-0.919-12.617-1.104-13.588c-0.556-2.801-3.028-4.833-5.878-4.833c-0.391,0-0.786,0.039-1.176,0.115   c-1.572,0.313-2.926,1.217-3.818,2.549c-0.891,1.333-1.211,2.933-0.895,4.519c0.034,0.188,0.871,4.66,0.867,11.235   c0.006,6.119-0.736,15.328-4.309,24.461c-1.441,3.67-3.191,7.025-5.257,10.094c-2.051,3.047-4.42,5.806-7.119,8.302   c-0.082,0.076-0.163,0.153-0.246,0.229c-2.03,1.852-4.24,3.561-6.649,5.126c-1.345,0.87-2.271,2.212-2.606,3.78   c-0.336,1.568-0.043,3.172,0.83,4.517C70.215,136.763,72.037,137.773,74.029,137.822z"/><path d="M22.017,165.17c-0.931-0.596-2.167-0.325-2.764,0.606c-1.432,2.237-2.819,4.573-4.146,7.004   c-0.53,0.97-0.174,2.184,0.795,2.714c0.304,0.166,0.633,0.246,0.958,0.246c0.707,0,1.393-0.376,1.756-1.041   c1.284-2.349,2.624-4.606,4.006-6.766C23.219,167.003,22.948,165.766,22.017,165.17z"/><path d="M54.357,138.317c0.223,0,0.449-0.038,0.67-0.116c2.588-0.92,4.999-1.373,7.141-1.373c1.105,0,2.002-0.896,2.002-1.999   c0-1.105-0.897-2.001-2.002-2.001c-2.702,0.002-5.549,0.563-8.481,1.604c-1.04,0.37-1.584,1.512-1.214,2.554   C52.764,137.806,53.535,138.317,54.357,138.317z"/><path d="M30.406,151.228v-0.002c-1.789,1.942-3.552,4.021-5.276,6.233c-0.68,0.871-0.524,2.126,0.347,2.807   c0.365,0.284,0.798,0.421,1.227,0.422c0.596,0,1.186-0.265,1.581-0.771c1.656-2.126,3.349-4.122,5.06-5.979   c0.75-0.813,0.697-2.079-0.115-2.827C32.419,150.363,31.154,150.414,30.406,151.228z"/><path d="M40.364,147.164c2.083-1.767,4.156-3.322,6.194-4.651c0.924-0.604,1.186-1.843,0.581-2.768   c-0.604-0.924-1.843-1.185-2.767-0.581c-2.19,1.428-4.397,3.084-6.597,4.952c-0.842,0.715-0.945,1.976-0.23,2.819   c0.396,0.466,0.958,0.706,1.525,0.706C39.528,147.64,39.988,147.484,40.364,147.164z"/><path d="M13.246,180.877c-1.011-0.448-2.192,0.006-2.64,1.017v-0.002c-1.08,2.439-2.101,4.952-3.055,7.534   c-0.382,1.035,0.148,2.186,1.185,2.568c0.228,0.084,0.462,0.124,0.691,0.124c0.814,0,1.579-0.501,1.877-1.309   c0.922-2.5,1.911-4.933,2.958-7.294C14.711,182.506,14.255,181.324,13.246,180.877z"/><path d="M2.978,215.257c-1.095-0.145-2.102,0.623-2.248,1.718c-0.296,2.2-0.538,4.43-0.723,6.691   c-0.092,1.099,0.728,2.067,1.829,2.157c0.056,0.004,0.111,0.007,0.166,0.007c1.031,0,1.905-0.792,1.991-1.837   c0.181-2.192,0.415-4.354,0.701-6.486C4.842,216.411,4.073,215.405,2.978,215.257z"/><path d="M6.885,197.701c-1.062-0.298-2.167,0.321-2.465,1.385c-0.723,2.572-1.377,5.202-1.952,7.887   c-0.232,1.079,0.456,2.143,1.537,2.373c0.142,0.03,0.283,0.045,0.422,0.045c0.923,0,1.751-0.643,1.953-1.582   c0.557-2.601,1.19-5.149,1.89-7.641C8.568,199.104,7.95,198.001,6.885,197.701z"/></g><text x="0" y="242.832" fill="#000000" font-size="5px" font-weight="bold" font-family="'Helvetica Neue', Helvetica, Arial-Unicode, Arial, Sans-serif">Created by Gan Khoon Lay</text><text x="0" y="247.832" fill="#000000" font-size="5px" font-weight="bold" font-family="'Helvetica Neue', Helvetica, Arial-Unicode, Arial, Sans-serif">from the Noun Project</text></svg>